# Goxel 0.14.0
v -2 0 0 0.305882 0.305882 0.305882
v -1 0 0 0.305882 0.305882 0.305882
v -1 1 0 0.305882 0.305882 0.305882
v -2 1 0 0.305882 0.305882 0.305882
v -1 0 -1 0.305882 0.305882 0.305882
v -2 0 -1 0.305882 0.305882 0.305882
v -2 1 -1 0.305882 0.305882 0.305882
v -1 1 -1 0.305882 0.305882 0.305882
v 0 0 0 0.305882 0.305882 0.305882
v 0 1 0 0.305882 0.305882 0.305882
v 0 0 -1 0.305882 0.305882 0.305882
v 0 1 -1 0.305882 0.305882 0.305882
vn 0 0 1
vn 0 0 -1
vn 0 -1 -0
vn 0 1 0
vn -1 0 0
vn 1 0 0
f 1//1 2//1 3//1 4//1
f 5//2 6//2 7//2 8//2
f 1//3 6//3 5//3 2//3
f 3//4 8//4 7//4 4//4
f 1//5 4//5 7//5 6//5
f 2//1 9//1 10//1 3//1
f 11//2 5//2 8//2 12//2
f 2//3 5//3 11//3 9//3
f 10//4 12//4 8//4 3//4
f 9//6 11//6 12//6 10//6
