# Goxel 0.14.0
v -1 0 2 0.458824 0.250980 0.105882
v 0 0 2 0.458824 0.250980 0.105882
v 0 1 2 0.458824 0.250980 0.105882
v -1 1 2 0.458824 0.250980 0.105882
v 0 0 1 0.458824 0.250980 0.105882
v -1 0 1 0.458824 0.250980 0.105882
v -1 1 1 0.458824 0.250980 0.105882
v 0 1 1 0.458824 0.250980 0.105882
v 0 2 2 0.458824 0.250980 0.105882
v -1 2 2 0.458824 0.250980 0.105882
v -1 2 1 0.458824 0.250980 0.105882
v 0 2 1 0.458824 0.250980 0.105882
v -1 2 4 0.105882 0.458824 0.105882
v 0 2 4 0.105882 0.458824 0.105882
v 0 3 4 0.105882 0.458824 0.105882
v -1 3 4 0.105882 0.458824 0.105882
v -1 2 3 0.105882 0.458824 0.105882
v 0 2 3 0.105882 0.458824 0.105882
v 0 3 3 0.105882 0.458824 0.105882
v -1 3 3 0.105882 0.458824 0.105882
v -2 2 3 0.105882 0.458824 0.105882
v -2 3 3 0.105882 0.458824 0.105882
v -2 2 2 0.105882 0.458824 0.105882
v -1 2 2 0.105882 0.458824 0.105882
v -1 3 2 0.105882 0.458824 0.105882
v -2 3 2 0.105882 0.458824 0.105882
v 0 2 2 0.105882 0.458824 0.105882
v -3 2 2 0.105882 0.458824 0.105882
v -3 3 2 0.105882 0.458824 0.105882
v -2 2 1 0.105882 0.458824 0.105882
v -3 2 1 0.105882 0.458824 0.105882
v -3 3 1 0.105882 0.458824 0.105882
v -2 3 1 0.105882 0.458824 0.105882
v -1 2 1 0.105882 0.458824 0.105882
v -1 2 0 0.105882 0.458824 0.105882
v -2 2 0 0.105882 0.458824 0.105882
v -2 3 0 0.105882 0.458824 0.105882
v -1 3 0 0.105882 0.458824 0.105882
v -1 3 1 0.105882 0.458824 0.105882
v 0 2 0 0.105882 0.458824 0.105882
v 0 2 1 0.105882 0.458824 0.105882
v 0 4 3 0.105882 0.458824 0.105882
v -1 4 3 0.105882 0.458824 0.105882
v 0 3 2 0.105882 0.458824 0.105882
v 0 4 2 0.105882 0.458824 0.105882
v -1 4 2 0.105882 0.458824 0.105882
v -2 4 2 0.105882 0.458824 0.105882
v -2 4 1 0.105882 0.458824 0.105882
v -1 4 1 0.105882 0.458824 0.105882
v 0 3 0 0.105882 0.458824 0.105882
v -1 4 0 0.105882 0.458824 0.105882
v 0 4 0 0.105882 0.458824 0.105882
v 0 3 1 0.105882 0.458824 0.105882
v 0 4 1 0.105882 0.458824 0.105882
v -1 4 4 0.105882 0.458824 0.105882
v 0 4 4 0.105882 0.458824 0.105882
v 0 5 4 0.105882 0.458824 0.105882
v -1 5 4 0.105882 0.458824 0.105882
v 0 5 3 0.105882 0.458824 0.105882
v -1 5 3 0.105882 0.458824 0.105882
v -2 4 3 0.105882 0.458824 0.105882
v -2 5 3 0.105882 0.458824 0.105882
v -1 5 2 0.105882 0.458824 0.105882
v -2 5 2 0.105882 0.458824 0.105882
v -3 4 2 0.105882 0.458824 0.105882
v -3 5 2 0.105882 0.458824 0.105882
v -3 4 1 0.105882 0.458824 0.105882
v -3 5 1 0.105882 0.458824 0.105882
v -2 5 1 0.105882 0.458824 0.105882
v -2 4 0 0.105882 0.458824 0.105882
v -2 5 0 0.105882 0.458824 0.105882
v -1 5 0 0.105882 0.458824 0.105882
v -1 5 1 0.105882 0.458824 0.105882
v 0 6 3 0.105882 0.458824 0.105882
v -1 6 3 0.105882 0.458824 0.105882
v 0 6 2 0.105882 0.458824 0.105882
v -1 6 2 0.105882 0.458824 0.105882
v 0 5 2 0.105882 0.458824 0.105882
v -2 6 2 0.105882 0.458824 0.105882
v -2 6 1 0.105882 0.458824 0.105882
v -1 6 1 0.105882 0.458824 0.105882
v 0 5 0 0.105882 0.458824 0.105882
v -1 6 0 0.105882 0.458824 0.105882
v 0 6 0 0.105882 0.458824 0.105882
v 0 6 1 0.105882 0.458824 0.105882
v 0 5 1 0.105882 0.458824 0.105882
v 0 7 2 0.105882 0.458824 0.105882
v -1 7 2 0.105882 0.458824 0.105882
v -1 7 1 0.105882 0.458824 0.105882
v 0 7 1 0.105882 0.458824 0.105882
v 0 8 2 0.105882 0.458824 0.105882
v -1 8 2 0.105882 0.458824 0.105882
v -1 8 1 0.105882 0.458824 0.105882
v 0 8 1 0.105882 0.458824 0.105882
v 1 2 3 0.105882 0.458824 0.105882
v 1 3 3 0.105882 0.458824 0.105882
v 1 2 2 0.105882 0.458824 0.105882
v 1 3 2 0.105882 0.458824 0.105882
v 1 2 1 0.105882 0.458824 0.105882
v 2 2 2 0.105882 0.458824 0.105882
v 2 3 2 0.105882 0.458824 0.105882
v 2 2 1 0.105882 0.458824 0.105882
v 1 3 1 0.105882 0.458824 0.105882
v 2 3 1 0.105882 0.458824 0.105882
v 1 2 0 0.105882 0.458824 0.105882
v 1 3 0 0.105882 0.458824 0.105882
v 1 4 2 0.105882 0.458824 0.105882
v 1 4 1 0.105882 0.458824 0.105882
v 1 4 3 0.105882 0.458824 0.105882
v 1 5 3 0.105882 0.458824 0.105882
v 1 5 2 0.105882 0.458824 0.105882
v 2 4 2 0.105882 0.458824 0.105882
v 2 5 2 0.105882 0.458824 0.105882
v 2 4 1 0.105882 0.458824 0.105882
v 1 5 1 0.105882 0.458824 0.105882
v 2 5 1 0.105882 0.458824 0.105882
v 1 4 0 0.105882 0.458824 0.105882
v 1 5 0 0.105882 0.458824 0.105882
v 1 6 2 0.105882 0.458824 0.105882
v 1 6 1 0.105882 0.458824 0.105882
v 0 2 -1 0.105882 0.458824 0.105882
v -1 2 -1 0.105882 0.458824 0.105882
v -1 3 -1 0.105882 0.458824 0.105882
v 0 3 -1 0.105882 0.458824 0.105882
v 0 4 -1 0.105882 0.458824 0.105882
v -1 4 -1 0.105882 0.458824 0.105882
v -1 5 -1 0.105882 0.458824 0.105882
v 0 5 -1 0.105882 0.458824 0.105882
vn 0 0 1
vn 0 0 -1
vn 0 -1 -0
vn 1 0 0
vn -1 0 0
vn 0 1 0
f 1//1 2//1 3//1 4//1
f 5//2 6//2 7//2 8//2
f 1//3 6//3 5//3 2//3
f 2//4 5//4 8//4 3//4
f 1//5 4//5 7//5 6//5
f 4//1 3//1 9//1 10//1
f 8//2 7//2 11//2 12//2
f 3//4 8//4 12//4 9//4
f 4//5 10//5 11//5 7//5
f 13//1 14//1 15//1 16//1
f 13//3 17//3 18//3 14//3
f 15//6 19//6 20//6 16//6
f 14//4 18//4 19//4 15//4
f 13//5 16//5 20//5 17//5
f 21//1 17//1 20//1 22//1
f 21//3 23//3 24//3 17//3
f 20//6 25//6 26//6 22//6
f 21//5 22//5 26//5 23//5
f 17//3 24//3 27//3 18//3
f 28//1 23//1 26//1 29//1
f 30//2 31//2 32//2 33//2
f 28//3 31//3 30//3 23//3
f 26//6 33//6 32//6 29//6
f 28//5 29//5 32//5 31//5
f 23//3 30//3 34//3 24//3
f 35//2 36//2 37//2 38//2
f 30//3 36//3 35//3 34//3
f 39//6 38//6 37//6 33//6
f 30//5 33//5 37//5 36//5
f 34//3 35//3 40//3 41//3
f 20//1 19//1 42//1 43//1
f 19//4 44//4 45//4 42//4
f 20//5 43//5 46//5 25//5
f 26//1 25//1 46//1 47//1
f 39//2 33//2 48//2 49//2
f 26//5 47//5 48//5 33//5
f 50//2 38//2 51//2 52//2
f 53//4 50//4 52//4 54//4
f 39//5 49//5 51//5 38//5
f 55//1 56//1 57//1 58//1
f 55//3 43//3 42//3 56//3
f 57//6 59//6 60//6 58//6
f 56//4 42//4 59//4 57//4
f 55//5 58//5 60//5 43//5
f 61//1 43//1 60//1 62//1
f 61//3 47//3 46//3 43//3
f 60//6 63//6 64//6 62//6
f 61//5 62//5 64//5 47//5
f 65//1 47//1 64//1 66//1
f 48//2 67//2 68//2 69//2
f 65//3 67//3 48//3 47//3
f 64//6 69//6 68//6 66//6
f 65//5 66//5 68//5 67//5
f 51//2 70//2 71//2 72//2
f 48//3 70//3 51//3 49//3
f 73//6 72//6 71//6 69//6
f 48//5 69//5 71//5 70//5
f 60//1 59//1 74//1 75//1
f 74//6 76//6 77//6 75//6
f 59//4 78//4 76//4 74//4
f 60//5 75//5 77//5 63//5
f 64//1 63//1 77//1 79//1
f 73//2 69//2 80//2 81//2
f 77//6 81//6 80//6 79//6
f 64//5 79//5 80//5 69//5
f 82//2 72//2 83//2 84//2
f 85//6 84//6 83//6 81//6
f 86//4 82//4 84//4 85//4
f 73//5 81//5 83//5 72//5
f 77//1 76//1 87//1 88//1
f 85//2 81//2 89//2 90//2
f 76//4 85//4 90//4 87//4
f 77//5 88//5 89//5 81//5
f 88//1 87//1 91//1 92//1
f 90//2 89//2 93//2 94//2
f 91//6 94//6 93//6 92//6
f 87//4 90//4 94//4 91//4
f 88//5 92//5 93//5 89//5
f 18//1 95//1 96//1 19//1
f 18//3 27//3 97//3 95//3
f 96//6 98//6 44//6 19//6
f 95//4 97//4 98//4 96//4
f 27//3 41//3 99//3 97//3
f 97//1 100//1 101//1 98//1
f 102//2 99//2 103//2 104//2
f 97//3 99//3 102//3 100//3
f 101//6 104//6 103//6 98//6
f 100//4 102//4 104//4 101//4
f 105//2 40//2 50//2 106//2
f 41//3 40//3 105//3 99//3
f 103//6 106//6 50//6 53//6
f 99//4 105//4 106//4 103//4
f 44//1 98//1 107//1 45//1
f 103//2 53//2 54//2 108//2
f 98//4 103//4 108//4 107//4
f 42//1 109//1 110//1 59//1
f 42//3 45//3 107//3 109//3
f 110//6 111//6 78//6 59//6
f 109//4 107//4 111//4 110//4
f 107//1 112//1 113//1 111//1
f 114//2 108//2 115//2 116//2
f 107//3 108//3 114//3 112//3
f 113//6 116//6 115//6 111//6
f 112//4 114//4 116//4 113//4
f 117//2 52//2 82//2 118//2
f 54//3 52//3 117//3 108//3
f 115//6 118//6 82//6 86//6
f 108//4 117//4 118//4 115//4
f 78//1 111//1 119//1 76//1
f 115//2 86//2 85//2 120//2
f 119//6 120//6 85//6 76//6
f 111//4 115//4 120//4 119//4
f 121//2 122//2 123//2 124//2
f 35//3 122//3 121//3 40//3
f 50//6 124//6 123//6 38//6
f 40//4 121//4 124//4 50//4
f 35//5 38//5 123//5 122//5
f 125//2 126//2 127//2 128//2
f 51//3 126//3 125//3 52//3
f 82//6 128//6 127//6 72//6
f 52//4 125//4 128//4 82//4
f 51//5 72//5 127//5 126//5
